<?xml version="1.0" standalone="no"?>
<!DOCTYPE svg PUBLIC "-//W3C//DTD SVG 20010904//EN"
 "http://www.w3.org/TR/2001/REC-SVG-20010904/DTD/svg10.dtd">
<svg version="1.0" xmlns="http://www.w3.org/2000/svg"
 width="48.000000pt" height="48.000000pt" viewBox="0 0 48.000000 48.000000"
 preserveAspectRatio="xMidYMid meet">
<metadata>
Created by potrace 1.15, written by Peter Selinger 2001-2017
</metadata>
<g transform="translate(0.000000,48.000000) scale(0.100000,-0.100000)"
fill="#000000" stroke="none">
<path d="M40 336 c0 -8 -3 -21 -6 -30 -5 -14 16 -16 200 -16 217 0 217 0 200
44 -5 14 -32 16 -200 16 -161 0 -194 -2 -194 -14z"/>
<path d="M37 273 c-14 -13 -7 -80 12 -117 20 -37 20 -37 -2 -59 -25 -25 -10
-34 31 -19 21 7 33 6 47 -4 22 -16 105 -19 105 -3 0 5 -24 36 -52 67 -48 52
-49 54 -12 22 123 -104 152 -118 181 -89 9 9 20 9 43 -1 38 -16 47 -8 26 21
-14 21 -14 25 5 55 11 18 22 55 26 83 l6 51 -205 0 c-113 0 -208 -3 -211 -7z"/>
</g>
</svg>
