<?xml version="1.0" standalone="no"?>
<!DOCTYPE svg PUBLIC "-//W3C//DTD SVG 20010904//EN"
 "http://www.w3.org/TR/2001/REC-SVG-20010904/DTD/svg10.dtd">
<svg version="1.0" xmlns="http://www.w3.org/2000/svg"
 width="48.000000pt" height="48.000000pt" viewBox="0 0 48.000000 48.000000"
 preserveAspectRatio="xMidYMid meet">
<metadata>
Created by potrace 1.15, written by Peter Selinger 2001-2017
</metadata>
<g transform="translate(0.000000,48.000000) scale(0.100000,-0.100000)"
fill="#000000" stroke="none">
<path d="M63 428 c-30 -34 -34 -55 -19 -91 15 -36 88 -107 111 -107 28 0 17
55 -20 100 -19 23 -32 46 -29 51 7 12 21 3 57 -38 16 -18 33 -33 37 -33 4 0
11 16 15 36 6 32 3 41 -26 70 -41 42 -94 47 -126 12z"/>
<path d="M302 418 c-23 -18 -48 -46 -56 -63 -15 -30 -15 -30 15 -33 21 -2 40
5 68 27 68 54 85 35 21 -23 -22 -20 -40 -38 -40 -41 0 -2 17 -9 37 -14 36 -10
40 -9 72 24 46 45 48 96 7 131 -38 33 -76 30 -124 -8z"/>
<path d="M193 284 c-2 -7 -3 -29 -1 -50 3 -38 4 -39 44 -42 l42 -3 -10 -41
c-8 -39 -7 -43 24 -75 32 -33 72 -42 113 -27 25 10 47 62 40 94 -7 32 -99 124
-118 117 -27 -8 -18 -52 19 -95 49 -58 32 -76 -20 -23 -35 36 -39 44 -40 98
l-1 58 -44 0 c-24 1 -45 -5 -48 -11z"/>
<path d="M61 195 c-84 -96 16 -206 116 -129 32 24 73 79 73 97 0 20 -67 4
-100 -23 -34 -30 -60 -39 -60 -20 0 5 18 24 40 41 54 44 54 44 -21 65 -10 3
-29 -10 -48 -31z"/>
</g>
</svg>
