<?xml version="1.0" standalone="no"?>
<!DOCTYPE svg PUBLIC "-//W3C//DTD SVG 20010904//EN"
 "http://www.w3.org/TR/2001/REC-SVG-20010904/DTD/svg10.dtd">
<svg version="1.0" xmlns="http://www.w3.org/2000/svg"
 width="48.000000pt" height="48.000000pt" viewBox="0 0 48.000000 48.000000"
 preserveAspectRatio="xMidYMid meet">
<metadata>
Created by potrace 1.15, written by Peter Selinger 2001-2017
</metadata>
<g transform="translate(0.000000,48.000000) scale(0.100000,-0.100000)"
fill="#000000" stroke="none">
<path d="M125 340 l-110 -110 75 -75 c41 -41 76 -73 78 -70 2 2 -3 26 -12 53
-15 43 -23 52 -57 66 -45 18 -50 37 -14 60 45 29 65 17 65 -41 0 -32 49 -173
67 -193 11 -12 13 3 13 95 l0 109 -37 39 -38 38 24 20 c26 21 77 25 116 7 33
-15 32 -28 -10 -68 l-35 -34 0 -110 c0 -101 1 -109 16 -94 19 19 59 135 68
201 8 52 24 60 64 31 32 -22 27 -43 -13 -60 -35 -14 -57 -45 -69 -99 -6 -27 1
-22 71 47 l78 78 -110 110 c-60 60 -112 110 -115 110 -3 0 -55 -49 -115 -110z"/>
</g>
</svg>
