<?xml version="1.0" standalone="no"?>
<!DOCTYPE svg PUBLIC "-//W3C//DTD SVG 20010904//EN"
 "http://www.w3.org/TR/2001/REC-SVG-20010904/DTD/svg10.dtd">
<svg version="1.0" xmlns="http://www.w3.org/2000/svg"
 width="48.000000pt" height="48.000000pt" viewBox="0 0 48.000000 48.000000"
 preserveAspectRatio="xMidYMid meet">
<metadata>
Created by potrace 1.15, written by Peter Selinger 2001-2017
</metadata>
<g transform="translate(0.000000,48.000000) scale(0.100000,-0.100000)"
fill="#000000" stroke="none">
<path d="M97 373 c-75 -44 -77 -46 -77 -84 0 -32 3 -39 20 -39 15 0 20 7 20
29 0 25 8 34 56 61 33 19 63 29 73 25 13 -5 11 -9 -11 -21 -27 -14 -28 -17
-28 -98 0 -80 1 -85 26 -104 48 -34 3 -32 -56 2 -42 25 -56 39 -58 59 -2 19
-9 27 -23 27 -15 0 -19 -7 -19 -37 1 -37 3 -40 77 -82 l77 -43 34 18 c32 17
34 17 67 0 l34 -18 73 44 c68 41 73 47 73 79 0 44 -32 55 -37 13 -2 -22 -15
-35 -58 -60 -59 -34 -104 -36 -56 -2 25 19 26 24 26 104 0 81 -1 84 -27 98
-23 12 -25 16 -12 21 10 4 40 -6 73 -25 48 -28 56 -36 56 -62 0 -23 4 -29 18
-26 12 2 18 14 20 39 3 36 2 37 -75 82 l-78 45 -32 -20 c-33 -20 -33 -20 -66
1 l-33 20 -77 -46z m174 -53 c16 -9 19 -22 19 -75 0 -58 -3 -66 -25 -81 -23
-15 -27 -15 -50 0 -22 15 -25 23 -25 81 0 50 4 66 18 74 22 13 39 13 63 1z"/>
</g>
</svg>
