<?xml version="1.0" standalone="no"?>
<!DOCTYPE svg PUBLIC "-//W3C//DTD SVG 20010904//EN"
 "http://www.w3.org/TR/2001/REC-SVG-20010904/DTD/svg10.dtd">
<svg version="1.0" xmlns="http://www.w3.org/2000/svg"
 width="48.000000pt" height="48.000000pt" viewBox="0 0 48.000000 48.000000"
 preserveAspectRatio="xMidYMid meet">
<metadata>
Created by potrace 1.15, written by Peter Selinger 2001-2017
</metadata>
<g transform="translate(0.000000,48.000000) scale(0.100000,-0.100000)"
fill="#000000" stroke="none">
<path d="M170 385 l0 -75 -75 0 c-68 0 -75 -2 -75 -20 0 -18 7 -20 55 -20 54
0 55 0 55 -30 0 -30 -1 -30 -55 -30 -48 0 -55 -2 -55 -20 0 -18 7 -20 75 -20
l75 0 0 -75 c0 -68 2 -75 20 -75 18 0 20 7 20 55 0 54 0 55 30 55 30 0 30 -1
30 -55 0 -48 2 -55 20 -55 18 0 20 7 20 75 l0 75 75 0 c68 0 75 2 75 20 0 18
-7 20 -55 20 -54 0 -55 0 -55 30 0 30 1 30 55 30 48 0 55 2 55 20 0 18 -7 20
-75 20 l-75 0 0 75 c0 68 -2 75 -20 75 -18 0 -20 -7 -20 -55 0 -54 0 -55 -30
-55 -30 0 -30 1 -30 55 0 48 -2 55 -20 55 -18 0 -20 -7 -20 -75z"/>
</g>
</svg>
